<svg xmlns="http://www.w3.org/2000/svg" xmlns:xlink="http://www.w3.org/1999/xlink" width="329.396" height="50" viewBox="0 0 329.396 50">
    <defs>
      <clipPath id="clip-path">
        <rect id="Rectangle_1" data-name="Rectangle 1" width="329.396" height="50" fill="none"/>
      </clipPath>
    </defs>
    <g id="Group_2" data-name="Group 2" transform="translate(0 0)">
      <g id="Group_1" data-name="Group 1" transform="translate(0 0)" clip-path="url(#clip-path)">
        <path id="Path_1" data-name="Path 1" d="M90.131,90.594c.884,0,1.768,0,2.653,0,.5,0,.563.423.718.757,1.063,2.287,2.128,4.574,3.245,6.973a10.088,10.088,0,0,0,1.3-2.535c.681-1.429,1.342-2.871,1.916-4.345a1.154,1.154,0,0,1,1.342-.872c.7.052,1.409.011,2.228.126-1.64.385-1.338,1.608-1.341,2.681-.005,2-.013,4,.013,6,.015,1.136.045,1.135,1.409,1.67H99.228c1.47-.215,1.251-1.323,1.248-2.326a59.48,59.48,0,0,0-.212-5.984l-3.882,8.691-4.037-8.7c0,2.6-.027,4.895.017,7.188.013.673.672.816,1.216,1.079a9.541,9.541,0,0,1-3.485.008c1.436-.288,1.478-1.351,1.482-2.424.008-1.85.019-3.7,0-5.549-.019-1.48-.189-1.7-1.439-2.444" transform="translate(-52.012 -52.287)" fill="#9a9a9d"/>
        <path id="Path_2" data-name="Path 2" d="M368.72,93.519a73.837,73.837,0,0,1,12.878.238,17.785,17.785,0,0,1,6.363,1.714,5.409,5.409,0,0,1-2.121-.383,58.767,58.767,0,0,0-14.872-.82,99.529,99.529,0,0,0-12.911,1.419,56.075,56.075,0,0,0-13.844,4.018l-.085-.094a17.212,17.212,0,0,1,6.161-2.892,57.917,57.917,0,0,1,9.433-2.1,15.6,15.6,0,0,0,1.637-.41h.605l6.455-.7.3.011" transform="translate(-198.673 -53.897)" fill="#9a9a9d"/>
        <path id="Path_3" data-name="Path 3" d="M232.3,98.64c-1,1.885-3.3,2.616-5.674,2a5,5,0,0,1-3.634-4.545c-.325-4.312,2.873-7,7.075-5.945.679.17,1.383.536,2.115-.515.092,1.444.164,2.578.239,3.767-.571-.112-.585-.461-.711-.715a3.475,3.475,0,0,0-6.519.434,6.906,6.906,0,0,0-.059,4.221c.82,2.749,3.75,3.641,6.3,1.931.3-.2.58-.422.87-.634" transform="translate(-128.724 -51.748)" fill="#9a9a9d"/>
        <path id="Path_4" data-name="Path 4" d="M147.869,100.2c-.612.482-1.49.908-1.813.723-1.08-.618-1.864.3-2.788.261-1.731-.069-2.975-1.749-2.832-3.824a4.094,4.094,0,0,1,2.661-3.6,3.042,3.042,0,0,1,2.162.4c.406-2.222.245-2.853-.8-3.24.054-.05.1-.121.161-.145,2.138-.825,2.138-.825,2.138,1.414,0,2.111.033,4.223-.014,6.334-.019.837.115,1.479,1.125,1.675M145.4,97.436h-.044c0-.64.048-1.285-.013-1.919a1.357,1.357,0,0,0-1.107-1.272,1.586,1.586,0,0,0-1.651.471c-.922,1.044-.875,3.989.112,5a1.665,1.665,0,0,0,1.849.5c.751-.264.891-.835.858-1.53-.019-.413,0-.828,0-1.243" transform="translate(-81.071 -52.115)" fill="#9a9a9d"/>
        <path id="Path_5" data-name="Path 5" d="M267.65,105.638h-2.961c1.177-1.126,1.111-5.963-.06-6.508,1.749-.961,1.994-.934,2.233.246.07-.017.159-.012.208-.054.827-.727,1.722-1.335,2.852-.767,1.086.546,1.085,1.626,1.09,2.661,0,.943.017,1.887.007,2.831-.007.628.01,1.224.776,1.527H268.68c1.124-.462.976-1.373.976-2.228,0-.905.03-1.815-.04-2.715-.055-.707-.3-1.418-1.2-1.334-.848.079-1.516.457-1.5,1.487.016,1.132.011,2.265,0,3.4a1.343,1.343,0,0,0,.738,1.458" transform="translate(-152.777 -56.769)" fill="#9a9a9d"/>
        <path id="Path_6" data-name="Path 6" d="M193.376,104.746c-1.33,1.333-1.587,1.372-2.458.373-.35-.4-.492-.1-.721.038-1.49.867-2.62.808-3.173-.169-.593-1.048-.038-2.2,1.465-2.976a9.838,9.838,0,0,1,1.552-.676c.946-.3.749-1.032.651-1.671-.117-.761-.73-.876-1.384-.825a.8.8,0,0,0-.833.974c.034.45-.063.844-.558.98a.592.592,0,0,1-.672-.305.972.972,0,0,1,.149-1.154,3.294,3.294,0,0,1,3.337-.822,1.99,1.99,0,0,1,1.345,2.126c.019,1.018.006,2.037.008,3.056,0,.707-.117,1.518,1.293,1.052m-2.653-1.913c-.139-.268.321-.935-.214-1.149-.474-.189-.984.236-1.427.522a1.83,1.83,0,0,0-.719.851,1.331,1.331,0,0,0,.184,1.482,1.231,1.231,0,0,0,1.369.2c.93-.255.866-1.007.807-1.909" transform="translate(-107.839 -56.792)" fill="#9a9a9d"/>
        <path id="Path_7" data-name="Path 7" d="M299.977,103.244a3.331,3.331,0,0,1-3.593,2.542,3.1,3.1,0,0,1-2.594-3.114c-.164-2.281,1.037-4.059,2.914-4.315a2.6,2.6,0,0,1,2.963,1.872c.222.736.139,1.139-.782,1.084-1.016-.061-2.038,0-3.057-.022-.605-.015-.8.244-.737.82a2.524,2.524,0,0,0,1.468,2.362,2.3,2.3,0,0,0,2.758-.728c.168-.2.265-.563.66-.5m-3.515-2.483c.5-.341,1.36.449,1.6-.509.159-.624-.675-1.358-1.386-1.347s-1.668.822-1.534,1.4c.184.793.9.18,1.316.459" transform="translate(-169.603 -56.766)" fill="#9a9a9d"/>
        <path id="Path_8" data-name="Path 8" d="M254.2,102.971a3.455,3.455,0,0,1-3.573,2.867c-1.522-.139-2.462-1.276-2.621-3.173-.233-2.768,1.561-4.714,3.9-4.241a2.206,2.206,0,0,1,1.474.96c.332.5.764,1.095.506,1.662s-.952.218-1.448.249a17.75,17.75,0,0,1-2.375,0c-.844-.06-.982.371-.811,1.032.25.968.591,1.931,1.678,2.229a2.347,2.347,0,0,0,2.694-.951c.1-.144.24-.266.581-.638m-3.437-2.2c.494-.293,1.287.4,1.525-.449.172-.615-.762-1.443-1.484-1.393-.858.059-1.561.607-1.5,1.387.066.881.992.138,1.462.455" transform="translate(-143.166 -56.782)" fill="#9a9a9d"/>
        <path id="Path_9" data-name="Path 9" d="M129.978,103.252a3.443,3.443,0,0,1-3.165,2.583,2.7,2.7,0,0,1-2.67-1.536,4.548,4.548,0,0,1,.426-4.718A2.925,2.925,0,0,1,127.8,98.5a2.379,2.379,0,0,1,1.812,1.953c.177.626.035.916-.669.894-1.018-.032-2.04.031-3.056-.017-.8-.038-.995.311-.863,1.019a2.56,2.56,0,0,0,1.63,2.251,2.266,2.266,0,0,0,2.6-.854c.162-.189.254-.475.719-.5m-3.47-2.437c.463-.34,1.3.459,1.476-.531.114-.647-.713-1.4-1.408-1.32-.776.086-1.5.527-1.481,1.3.018,1.023.968.2,1.413.551" transform="translate(-71.4 -56.814)" fill="#9a9a9d"/>
        <path id="Path_10" data-name="Path 10" d="M175.711,103.431a2.995,2.995,0,0,1-5.91-.925c-.068-2.765,1.843-4.576,4.281-4.053a2.2,2.2,0,0,1,1.408.874.768.768,0,0,1-.247,1.245c-.485.274-.831-.02-.977-.442-.262-.76-.517-1.445-1.539-1.253a1.982,1.982,0,0,0-1.536,1.757,3.228,3.228,0,0,0-.147,1.672c.277.971.616,1.911,1.7,2.225a2.29,2.29,0,0,0,2.6-.923c.075-.1.254-.112.384-.164Z" transform="translate(-98.029 -56.787)" fill="#9a9a9d"/>
        <path id="Path_11" data-name="Path 11" d="M203.066,91.019c2.408-.978,2.409-.978,2.41,1.47,0,2.3.015,4.592-.008,6.887-.007.75.14,1.342.98,1.619h-3.524c1.5-.462,1.184-1.54,1.191-2.48.015-2.032-.005-4.064.008-6.1.005-.734-.056-1.38-1.057-1.4" transform="translate(-117.153 -52.195)" fill="#9a9a9d"/>
        <path id="Path_12" data-name="Path 12" d="M285.09,93.925a7.414,7.414,0,0,1,.057.913c-.066.7.041,1.2.936,1.078.235-.033.6-.073.588.319-.01.29-.318.3-.534.271-.96-.147-1.023.411-1,1.148.041,1.093,0,2.19.013,3.285.017,1.515.332,1.724,1.718,1.162A1.621,1.621,0,0,1,285,103.227a1.472,1.472,0,0,1-1.209-1.66q.021-1.926-.005-3.851c-.008-.6.3-1.408-.981-1.244l2.281-2.546" transform="translate(-163.273 -54.225)" fill="#9a9a9d"/>
        <path id="Path_13" data-name="Path 13" d="M312.415,99.9c-.607,1.644-.271,3.342-.268,5.018,0,.677.744.5,1.241.885h-3.944A1.528,1.528,0,0,0,310.72,104c-.009-.978,0-1.956,0-2.934,0-1.125-.008-1.125-.982-1.537,1.917-1.086,2.033-1.074,2.58.256a1.387,1.387,0,0,1,.1.119" transform="translate(-178.65 -57.008)" fill="#9a9a9d"/>
        <path id="Path_14" data-name="Path 14" d="M159.392,105.751c1.628-1.636.527-3.646.834-5.408.128-.736-.551-.634-1.125-.817a5.508,5.508,0,0,1,2.075-.881c.572-.168.424.38.426.664.018,1.541.008,3.082.008,4.623,0,.757-.085,1.56.962,1.818Z" transform="translate(-91.853 -56.933)" fill="#9a9a9d"/>
        <path id="Path_15" data-name="Path 15" d="M288.183,80.962c-2.284,1.477-4.547,1.525-6.244.131l.055-.056c1.353.565,2.728,1.123,4.189.467a13.914,13.914,0,0,1,1.876-.662l.124.12" transform="translate(-162.77 -46.672)" fill="#b8347a"/>
        <path id="Path_16" data-name="Path 16" d="M316.242,99.628a1.726,1.726,0,0,1,1.638-1.148.742.742,0,0,1,.81.476.68.68,0,0,1-.114.738.647.647,0,0,1-.917.079.992.992,0,0,0-1.32-.027,1.405,1.405,0,0,0-.1-.118" transform="translate(-182.574 -56.854)" fill="#9a9a9d"/>
        <path id="Path_17" data-name="Path 17" d="M162.038,89.989c.5.01.817.217.848.72a.786.786,0,1,1-1.568.09.726.726,0,0,1,.72-.81" transform="translate(-93.132 -51.953)" fill="#9a9a9d"/>
        <path id="Path_18" data-name="Path 18" d="M135.761,77.672c.268.432-.024.664-.32.894q.16-.448.32-.894" transform="translate(-78.193 -44.842)" fill="#b8347a"/>
        <path id="Path_19" data-name="Path 19" d="M281.307,80.743a.641.641,0,0,1-.462-.445l.066-.063a.558.558,0,0,1,.452.451Z" transform="translate(-162.139 -46.322)" fill="#b8347a"/>
        <path id="Path_20" data-name="Path 20" d="M343.813,108.249c-.105.13-.312.21-.363.076-.078-.2.168-.129.278-.171l.085.094" transform="translate(-198.273 -62.441)" fill="#9a9a9d"/>
        <path id="Path_21" data-name="Path 21" d="M183.8,110.238l.07-.105c0,.02,0,.048-.006.057a.3.3,0,0,1-.077.036l.013.012" transform="translate(-106.104 -63.582)" fill="#9a9a9d"/>
        <path id="Path_22" data-name="Path 22" d="M453.8,95.548l-.241-.214.062-.053.222.211-.043.056" transform="translate(-261.851 -55.007)" fill="#b8347a"/>
        <path id="Path_23" data-name="Path 23" d="M210.061,79.724c-.071.112-.109.25-.178.268-.182.047-.254-.1-.235-.247a.281.281,0,0,1,.183-.2c.063-.008.142.1.23.176" transform="translate(-121.033 -45.924)" fill="#ce1976"/>
        <path id="Path_24" data-name="Path 24" d="M489.642,47.376c.076-.322-.1-.431-.38-.457a3.137,3.137,0,0,1-.451-1.606,12.828,12.828,0,0,0-4.21-7.772l-.017-.012A2.921,2.921,0,0,0,480.6,37.1c-.632.108-.506-.423-.572-.731-.48-2.241-.913-4.493-1.41-6.731a21.11,21.11,0,0,0-.856-2.914c-.292-.768-.84-1.025-1.525-.335l-.027.071a2.3,2.3,0,0,0-.231,2.154q.98,4.99,2.026,9.967a1.731,1.731,0,0,1-.192,1.507,21.838,21.838,0,0,0-3.022,6.285c-.079.238-.082.5-.407.616a3,3,0,0,1-3.243-.995c-.861-1.155-1.355-2.52-2.1-3.739-1.176-1.922-2.433-2.148-4.3-.8a9.973,9.973,0,0,0-4.09,5.379c-.806,2.794-.018,5.407,3.654,5.114.675-.054,1.356-.027,2.034-.017.375.005.8,0,.959.433.166.463-.15.785-.465,1.061a2.716,2.716,0,0,1-.658.435,14.906,14.906,0,0,1-7.913,1.327,12.522,12.522,0,0,1-5.009-2.225c-.935-.566-1.667-.179-1.879.888-.158.793.281,1.185.9,1.484l.062-.054.222.211-.043.056a3.633,3.633,0,0,0,.321.3c2.875,2.141,6.161,2.254,9.516,1.845,2.428-.3,4.746-.928,6.412-2.933.923-1.112,1.642-2.369,1.052-3.8-.566-1.371-1.987-1.23-3.217-1.356a9.035,9.035,0,0,1-3.621-.67l-.022.022.022-.022a1.821,1.821,0,0,1-.022-1.832,7.665,7.665,0,0,1,2.358-2.848,1.475,1.475,0,0,1,2.136-.017l.681.9a20.625,20.625,0,0,0,2.5,3.743,2.026,2.026,0,0,0,1.43.818c1.379.042,2.974-.293,3.2,1.8a.78.78,0,0,0,.16.3c.317.484.648,1,1.343.745s.719-.849.522-1.412c-.315-.9-.016-1.088.859-.989a14.99,14.99,0,0,0,8.281-1.183,1.573,1.573,0,0,1,1.845.085l0-.015a1.284,1.284,0,0,0,1.285.611c.239-.052.147-.438.082-.686q0-.793,0-1.585m-26.69,1.593-.028.029h0l.028-.029m3.324-5.662a1.228,1.228,0,0,1,.257-.029,1.228,1.228,0,0,0-.257.029m1.242.871.007-.007-.007.007m-.054.053.03-.03-.03.03m17.01,2.643a12.064,12.064,0,0,1-6.462.245c-.566-.12-.762-.334-.57-.926a13.272,13.272,0,0,1,1.6-3.409c.274.826.446,1.438.681,2.025.211.523.456,1.142,1.189.94a1.305,1.305,0,0,0,.924-1.4,21.411,21.411,0,0,0-.552-3.222c-.076-.486-.486-1.008.177-1.4a1.452,1.452,0,0,1,1.86.259,11.178,11.178,0,0,1,2.478,3.876c.92,2.017.765,2.316-1.328,3.015" transform="translate(-260.572 -15.002)" fill="#ce1976"/>
        <path id="Path_25" data-name="Path 25" d="M762.583,52.756a6.036,6.036,0,0,0-3.98-3.583,2.662,2.662,0,0,0-3.256,1.1c-.2-.262-.34-.435-.472-.613-.356-.48-.746-.893-1.414-.559a1.2,1.2,0,0,0-.706,1.492,11.339,11.339,0,0,0,.492,1.5,22.96,22.96,0,0,1,1.421,3.562c.315,1.339.584,2.812-.316,3.915a3.825,3.825,0,0,0-.692,2.579c-.042.8.252.911.916.563a4.651,4.651,0,0,0,2.093-2.7c.476.6.861,1.158,1.323,1.648a3.788,3.788,0,0,0,3.67,1.289c1.418-.318,1.788-1.619,2.064-2.85a11.14,11.14,0,0,0-1.145-7.338m-1.8,7.431c-.982.219-1.422-.716-1.812-1.424-.943-1.712-1.932-3.429-1.829-5.49.031-.626-.026-1.381.686-1.659.691-.27,1.231.224,1.67.693a8.671,8.671,0,0,1,2.15,5.671c-.088.914.209,1.969-.865,2.208" transform="translate(-434.553 -28.277)" fill="#ce1976"/>
        <path id="Path_26" data-name="Path 26" d="M624.235,51.878l-.015-.014.007.007.008.007" transform="translate(-360.377 -29.942)" fill="#ce1976"/>
        <path id="Path_27" data-name="Path 27" d="M590.665,49.318c-.031.386.447.591.243.979-2.016-1.391-2.728-1.2-3.846,1.034a6.455,6.455,0,0,0-.292.732.756.756,0,0,0,.176.842c.844.541.634,1.354.646,2.113a16.561,16.561,0,0,0,.248,3.038,6.8,6.8,0,0,0,2.922,4.651c1.752,1.125,3.857.518,4.313-1.353a12.634,12.634,0,0,0-2.22-10.9,2.529,2.529,0,0,0-2.189-1.133m2.616,9.878a1.289,1.289,0,0,1-.876,1.32,1.338,1.338,0,0,1-1.436-.7,6.9,6.9,0,0,1-1.23-4.253c.031-.795.438-1.589-.279-2.336-.251-.262-.018-.721.29-.994a1.009,1.009,0,0,1,1.346-.062,4.708,4.708,0,0,1,1.7,2.459,9.626,9.626,0,0,1,.56,3.212c-.026.451-.049.9-.078,1.351" transform="translate(-338.727 -28.471)" fill="#ce1976"/>
        <path id="Path_28" data-name="Path 28" d="M666.625,50.29c-.35-.686-1.06-.707-1.652-.746a9.957,9.957,0,0,1-7.491-3.673,1.212,1.212,0,0,0-.469-.673c-.543-1.09-.733-2.452-2.24-2.959a3.949,3.949,0,0,0,.33,1.852c.025.142.049.284.075.427a.225.225,0,0,0-.195.01l-.661-.7-.291-1.364A5.286,5.286,0,0,0,652,44.275h0c-.715.632-1.127,1.392-.49,2.252s1.469.5,2.233.1a2.039,2.039,0,0,0,.332-.272c.963.239,1,1.4,1.8,1.8a6.793,6.793,0,0,0,2.273,2.031.913.913,0,0,0,.67.465.62.62,0,0,0,.49.323.136.136,0,0,0,.111.142l-1.728,1.792-.223.2-.241.235,0-.007a15.072,15.072,0,0,0-2.272,1.807h0a8.17,8.17,0,0,1-2,.988c-.931.178-1.023.683-.961,1.42a5.515,5.515,0,0,1,0,.9c-.046.56.172.738.729.623a6.77,6.77,0,0,0,3.4-1.625h0a2.547,2.547,0,0,0,1.144-.918l.217-.19.238-.243v.007a1.967,1.967,0,0,0,.933-.89,2.26,2.26,0,0,0,.921-.9h-.009l.238-.2v.009h0l.387-.319.238-.184a10.346,10.346,0,0,1,4.777-1.15c1.358-.078,1.762-.681,1.425-2.1l0-.082" transform="translate(-375.949 -24.385)" fill="#ce1976"/>
        <path id="Path_29" data-name="Path 29" d="M712.362,24.233c.113,0,.227,0,.255,0,6.436-.387,9.675-4.051,12.03-9.142a1.438,1.438,0,0,0-.832-1.971c-.876-.429-1.181.255-1.517.878a36.551,36.551,0,0,1-1.839,3.242,10.176,10.176,0,0,1-8.193,4.932c-.7.033-1.624-.085-1.634.929-.011,1.081.905,1.125,1.731,1.133" transform="translate(-410.264 -7.497)" fill="#ce1976"/>
        <path id="Path_30" data-name="Path 30" d="M707.138,69.317a5.636,5.636,0,0,1-1.9-3.339c-.186-.67-.394-1.369-1.26-1.362-.849.007-1.082.681-1.268,1.361-.87,3.174-1.891,6.266-4.355,8.649a1.248,1.248,0,0,0,1.76,1.767,7.778,7.778,0,0,0,1.98-2.44c.709-1.316,1.36-2.664,2.094-4.114a6.194,6.194,0,0,0,2.269,1.972c.274.1.708.322.776-.034.157-.828.487-2.012-.1-2.461" transform="translate(-402.967 -37.304)" fill="#ce1976"/>
        <path id="Path_31" data-name="Path 31" d="M740.372,68.737c-.5-.238-.688-.877-.865-1.417-.2-.607-.347-1.23-.547-1.836a1.1,1.1,0,0,0-1.074-.845,1.138,1.138,0,0,0-1.11.809,8.585,8.585,0,0,0-.288.972c-.839,2.993-1.866,5.887-4.155,8.144a1.157,1.157,0,0,0-.033,1.8c.582.6,1.192.469,1.8-.042a8.07,8.07,0,0,0,1.9-2.367c.708-1.315,1.355-2.662,2.088-4.114a7.186,7.186,0,0,0,1.86,1.825c1.049.561,1.3.428,1.3-.732,0-.838.171-1.7-.867-2.193" transform="translate(-422.536 -37.318)" fill="#ce1976"/>
        <path id="Path_32" data-name="Path 32" d="M558.158,29.606c-.014-.47-.126-1.063-.888-.691q.022,1.9.043,3.793a.523.523,0,0,1,.6.4.523.523,0,0,0-.6-.4l-.244.167c-.374-1.293-.065-2.664-.46-3.953-.322-.8-.6-.342-.73.073a3.236,3.236,0,0,0-.055,1.12A92.871,92.871,0,0,0,557.109,41.1a50.236,50.236,0,0,0,2.08,8.772c.282.777.81,1.569,1.72,1.24.8-.29.434-1.15.3-1.8-1.372-6.516-2.853-13.014-3.049-19.713" transform="translate(-320.878 -16.444)" fill="#ce1976"/>
        <path id="Path_33" data-name="Path 33" d="M541.736,28.5c-.084-.41,0-1.11-.515-1.085-.567.027-.024.773-.389,1.17-.107-.181-.2-.334-.287-.49-.173-.307-.375-.621-.78-.514-.534.14-.325.6-.32.946a5,5,0,0,0,.082.559,136.784,136.784,0,0,0,2.8,14.193,6.044,6.044,0,0,1-.214,3.763l.066.061-.066-.061-.311.379c-.285.213-.841.179-.844.628-.006.809-.389,1.916.236,2.35s1.474-.273,2.089-.79a4.071,4.071,0,0,0,1.282-1.965,7.893,7.893,0,0,0,.358-3.459c-.8-5.281-2.116-10.458-3.186-15.684" transform="translate(-311.409 -15.828)" fill="#ce1976"/>
        <path id="Path_34" data-name="Path 34" d="M725.647,48.4a10.345,10.345,0,0,0-2.741-5.565l-.006,0c-.4-.582-.855-1.349-1.64-.977a1.835,1.835,0,0,0-.8,2.07,2.66,2.66,0,0,0,.757,1.358,10.609,10.609,0,0,1,2.485,7.091,3.432,3.432,0,0,1-2.112,3.534c-.722.2-.9.511-.836,1.159a6.374,6.374,0,0,1,0,1.129c-.05.6.246.7.754.614a4.556,4.556,0,0,0,3.414-2.5,10.966,10.966,0,0,0,.727-7.914" transform="translate(-415.916 -24.113)" fill="#ce1976"/>
        <path id="Path_35" data-name="Path 35" d="M485.253,102.482a4.815,4.815,0,0,1-2.875.342c-.543-.086-1.1-.115-1.312.549a1.154,1.154,0,0,0,.569,1.449,3.91,3.91,0,0,0,2.172.476c1.069,0,2.039.034,2.766-.724a1.3,1.3,0,0,0,.287-1.739,1.17,1.17,0,0,0-1.607-.354" transform="translate(-277.689 -59.067)" fill="#ce1976"/>
        <path id="Path_36" data-name="Path 36" d="M635.077,37.458a1.778,1.778,0,0,0,1.733-1.736,1.688,1.688,0,0,0-1.667-1.767,1.792,1.792,0,0,0-1.747,1.732,1.741,1.741,0,0,0,1.681,1.771" transform="translate(-365.674 -19.602)" fill="#ce1976"/>
        <path id="Path_37" data-name="Path 37" d="M707.818,51.688a1.026,1.026,0,0,0,1.014-.894,2.118,2.118,0,0,0-.976-2.225c-.544-.406-.788-.216-.813.388-.466-.1-.36-.775-.85-.564a.937.937,0,0,0-.5.831,1.974,1.974,0,0,0,.121,1.1,2.061,2.061,0,0,0,2,1.363m-.695-2.462.134.118-.066.189c-.043-.041-.112-.078-.121-.125s.033-.12.054-.181" transform="translate(-407.401 -27.915)" fill="#ce1976"/>
        <path id="Path_38" data-name="Path 38" d="M499.7,95c-.526.152-.022.709-.069,1.083-.009.074-.009.148-.02.349-.424-.237-.41-.668-.518-1.006-.178-.555-.464-.57-.8-.218a1.6,1.6,0,0,0-.323,2.141,1.652,1.652,0,0,0,2.2.53,1.514,1.514,0,0,0,.709-2.027c-.216-.515-.652-1-1.181-.852" transform="translate(-287.331 -54.832)" fill="#ce1976"/>
        <path id="Path_39" data-name="Path 39" d="M672.171,78.191c-.628-.08-.253.618-.68.823-.28-.205.007-.889-.561-.791a1,1,0,0,0-.747,1.016A1.64,1.64,0,0,0,670.92,81a1.476,1.476,0,0,0,1.7-.156c.617-.521.482-1.224.294-1.881a.938.938,0,0,0-.741-.772" transform="translate(-386.907 -45.138)" fill="#ce1976"/>
        <path id="Path_40" data-name="Path 40" d="M628.143,60.056l-.435-.462a29.677,29.677,0,0,1-1.953-5.749,24.29,24.29,0,0,0-1.122-3.893c-.2-.465-.395-.9-1.045-.8a1.323,1.323,0,0,0-1.164.919,2.346,2.346,0,0,0-.084,1.335c.213.875.431,1.751.677,2.617a16.151,16.151,0,0,1,.73,4.094,2.478,2.478,0,0,1-1.478,2.416c-.428.208-.9-.362-1.383-.473q-.042-.571-.083-1.141a.168.168,0,0,0,0-.212,2.112,2.112,0,0,0-.077-1.139,6.044,6.044,0,0,0-.125-2.034c-.039-.152-.077-.3-.115-.455a5.317,5.317,0,0,0-.9-2.991l.01,0a1.323,1.323,0,0,0-.519-.881c-.818-1.232-.873-1.253-1.691-.679-.021.014-.072-.014-.109-.022v.007l-.23-.222-.234-.215h0a1.108,1.108,0,0,0-.906-.468,1.273,1.273,0,0,0-1.146-.281.827.827,0,0,0-.9.036,1.377,1.377,0,0,0-1.156.935,2.246,2.246,0,0,0-.7,1.6l-.145.454a6.747,6.747,0,0,0,.814,4.556l-.007,0a1.326,1.326,0,0,0,.494.9h0l.178.256-.014,0a.5.5,0,0,0,.283.424.641.641,0,0,0,.428.5l.206.226h-.012a.6.6,0,0,0,.453.48l.005,0,.223.205h0l.231.226h0l.014.013h0l.245.2-.013,0a5.368,5.368,0,0,0,2.349,1.583l.111.21q-.346.732-.691,1.465v0l-.211.239-.01-.008h0a9.134,9.134,0,0,0-.956.94c-.256.333-1,.517-.515,1.149a1.474,1.474,0,0,0,1.669.654,2.825,2.825,0,0,0,1.215-.79,8.352,8.352,0,0,0,1.663-2.258c.221-.474.455-.757,1.014-.506.629.282.993.013,1.2-.786-.074,1.071.5.9.99.744a4.7,4.7,0,0,0,2.509-2.449l.487.448a2.956,2.956,0,0,0,2.28,2.1.381.381,0,0,0,.369-.178,2.952,2.952,0,0,0-.712-2.845M616.89,58.438a9.257,9.257,0,0,1-2.707-3.952,1.824,1.824,0,0,1-.066-.215c-.283-1.175.035-2.047.911-2.379,1.113-.423,1.724.3,2.165,1.115a9.8,9.8,0,0,1,1.226,4.8c-.092.41.231,1.1-.19,1.3-.476.221-.945-.336-1.338-.664" transform="translate(-353.197 -28.37)" fill="#ce1976"/>
        <path id="Path_41" data-name="Path 41" d="M373.656,33.031a8.171,8.171,0,0,0,2.72-3.688,2.842,2.842,0,0,0-.525-3.067,4.074,4.074,0,0,0-3.52-1.18,2.99,2.99,0,0,0,1.024,1.016,2.949,2.949,0,0,1,.384,4.687c-.377.42-.732.859-1.1,1.289a.381.381,0,0,0-.193.038c-.917-.661-1.4-.476-1.427.7a2.391,2.391,0,0,1-.179.62.5.5,0,0,0-.284.421l-.228.212-.012-.007c-1.727.768-1.728.768-1.9-1.126a8.57,8.57,0,0,0-1.218-3.955,3.28,3.28,0,0,0-3.43-1.673,2.984,2.984,0,0,0-2.372,2.823,7.27,7.27,0,0,1-2.877,5.169,7.12,7.12,0,0,0-1.257,1.295,3.8,3.8,0,0,0-1.037,2.165,1.621,1.621,0,0,0,1.06-.527,34.565,34.565,0,0,1,3.646-3.022,6.5,6.5,0,0,0,2.676-4.428c.09-1.033.6-1.374,1.57-1.164l1.343,1.6c.334.718.735,1.423.163,2.218a11.011,11.011,0,0,0-1.368,2.959,7.823,7.823,0,0,1-1.44,2.375c-2.393,2.965-2.72,6.47-.074,9.438.352.395.785,1.245,1.392.7.476-.426-.322-.916-.554-1.376-.134-.268-.326-.506-.48-.765a5.676,5.676,0,0,1,.588-7.2c.631-.745.969-.723,1.341.134a27.329,27.329,0,0,0,3.091,5.5,1.475,1.475,0,0,1,.234,1.484,9.287,9.287,0,0,1-.685,1.786,6.845,6.845,0,0,0-.389,6.281h.605c.426-1.828.865-3.652,1.27-5.485.125-.565.567-.864.891-1.265l.376-.03.242.244h-.01a2.754,2.754,0,0,0,.913,1.138l-.006.009a.789.789,0,0,1,.847.448.789.789,0,0,0-.847-.448,18.662,18.662,0,0,0,2.344,3.437,1.8,1.8,0,0,1,.435,1.252l.3.011A2.936,2.936,0,0,0,375.626,52a61.419,61.419,0,0,0-6.083-9.961c-.421-.713-.88-1.406-1.255-2.142-.892-1.755-.6-2.779,1.066-3.794.334-.2.669-.7,1.077-.443.452.279.376.845.347,1.347a12.381,12.381,0,0,0,.1,3.5c.072.315.1.778.484.82.4.045.493-.421.592-.716a8.306,8.306,0,0,0,.418-4.241,3.185,3.185,0,0,1,1.289-3.337m-6.189-1.608c.558.264.521.675.459,1.091.061-.416.1-.827-.459-1.091a1.75,1.75,0,0,0-.293-1.209,1.747,1.747,0,0,1,.293,1.209m-3.72-1.977a1.015,1.015,0,0,1,.176-.167,1.015,1.015,0,0,0-.176.167m1.441.175.044-.049-.044.049" transform="translate(-205.658 -14.465)" fill="#b8347a"/>
        <path id="Path_42" data-name="Path 42" d="M375.072,19.487a.743.743,0,0,0,.521.131,2.6,2.6,0,0,0,1.767-2.608,2.519,2.519,0,0,0-1.975-2.437,1.914,1.914,0,0,0-1.831,1.409,3.387,3.387,0,0,0,1.518,3.506" transform="translate(-215.617 -8.412)" fill="#b8347a"/>
        <path id="Path_43" data-name="Path 43" d="M386.3,13c.579-.05.492-.764.512-1.21a18.366,18.366,0,0,1,1.284-5.92,10.665,10.665,0,0,0,.717-3.975,2.177,2.177,0,0,0-.559-1.665c-.161-.154-.361-.308-.6-.194-.208.1-.159.321-.147.494a11.154,11.154,0,0,1-.271,3.243l.071.065-.071-.064-.212.469.006,0-.006,0a.478.478,0,0,0-.221.456,11.868,11.868,0,0,0-1.412,4.007,7.28,7.28,0,0,0-.231,3.117c.154.659.478,1.235,1.143,1.178m1.437-9.8c0,.023,0,.046,0,.069,0-.023,0-.046,0-.069m-.661,1.08h0l-.028-.021.028.021" transform="translate(-222.305 0)" fill="#b8347a"/>
        <path id="Path_44" data-name="Path 44" d="M290.212,77.483c-.374.088-.7.088-.73-.419l.73.419" transform="translate(-167.125 -44.491)" fill="#b8347a"/>
        <path id="Path_45" data-name="Path 45" d="M32.092,26.823c-4.791-1.3-9.532-.606-14.191.609A26,26,0,0,0,4.273,36.511a17.465,17.465,0,0,0-4.238,9.7,6.978,6.978,0,0,0,4.612,7.6,15.656,15.656,0,0,0,8.019.785,35.722,35.722,0,0,0,7.363-1.717c.929-.311,1.376.118.965.989-.6,1.264-.83,2.661-1.529,3.875a6.4,6.4,0,0,1-4.476,3.319,27.657,27.657,0,0,1-6.887.154,4.209,4.209,0,0,0-4.01,1.99c-.232.336-.652.671-.517,1.082.157.478.713.27,1.1.336.445.076.908.05,1.351.136A16.04,16.04,0,0,0,16.982,63.1c3.1-1.675,6.074-3.482,7.986-6.636,2.116-3.491,3.293-7.354,4.57-11.169A3.818,3.818,0,0,1,32,42.484,3.015,3.015,0,0,0,33.95,41.3c-.1-.078-.156-.15-.215-.155a112.954,112.954,0,0,0-12.664-.452,8.921,8.921,0,0,0-5.234,2.164,34.5,34.5,0,0,0,7.706.462c.677-.006,1.015.129.726.9a14.529,14.529,0,0,0-1,2.992c-.281,2-1.712,2.81-3.284,3.514a18.964,18.964,0,0,1-6.554,1.571A6.956,6.956,0,0,1,6.388,43.6a19.075,19.075,0,0,1,3.26-7.266c3.615-4.7,8-7.757,14.277-7.49,3.1.131,5.424.928,6.332,4.228.347,1.262.929,1.343,1.964.519,1.062-.847,2.083-1.746,3.141-2.6.96-.773,1.011-1.187.2-2.164a6.5,6.5,0,0,0-3.471-2.006" transform="translate(0 -15.081)" fill="#b8347a"/>
        <path id="Path_46" data-name="Path 46" d="M148.973,56.252a1.882,1.882,0,0,1-1.82-2.045c-.024-.6-.09-1.2-.094-1.806-.019-3.056.064-6.115-.055-9.166-.178-4.553-4.017-6.693-7.692-4.372a1.014,1.014,0,0,0-.686.441,1.218,1.218,0,0,0-.743.611.087.087,0,0,0,0-.01.947.947,0,0,0-.628.52.718.718,0,0,0-.475.427c-.295.068-.511.005-.518-.353-.012-.563-.05-1.13-.013-1.69.055-.825-.229-.949-.976-.661-1.26.485-2.565.852-3.835,1.315-.431.157-1.294.008-1.118.736.129.536.837.113,1.286.131l.451.089.593.531a13.678,13.678,0,0,1,.245,2.911c-.012,3.469,0,6.939,0,10.408q-.052.226-.1.453c.268.432-.024.664-.32.894a3.384,3.384,0,0,1-1.66.653c-.232.03-.485.054-.428.374.036.2.221.285.429.285h7.69c.2,0,.4-.049.442-.262.061-.308-.167-.379-.41-.389a2.12,2.12,0,0,1-2.17-2.013q-.008-5.78-.017-11.56a7.768,7.768,0,0,1,2.942-2.194,2.883,2.883,0,0,1,3.746,1.07,10.916,10.916,0,0,1,.588,1.805.755.755,0,0,1,.246.563.755.755,0,0,0-.246-.563q-.006,5.439-.011,10.879c-.217,1.084-.7,1.9-1.946,1.992-.23.017-.62-.082-.618.305,0,.436.4.37.687.37q3.567.006,7.134-.006c.244,0,.584.088.64-.285.061-.41-.291-.36-.536-.387m-5.1-4.023h0c-.009-2.558-.012-5.116-.034-7.673.022,2.558.025,5.116.035,7.673" transform="translate(-75.224 -21.891)" fill="#b8347a"/>
        <path id="Path_47" data-name="Path 47" d="M198.137,46.536A8.932,8.932,0,0,0,191,38.152c-4.55-.832-8.344,1.057-10.111,5.289-2.646,6.338.732,13.724,7.965,13.873,2.872.059,5.332-.787,7.065-3.225h0c1.98-2.153,2.389-4.78,2.217-7.554m-12.764,6.825a15.087,15.087,0,0,1-1.2-10.446A4.473,4.473,0,0,1,190.3,39.5a5.782,5.782,0,0,1,3.174,3.916c1.1,3.429,1.506,6.912.109,10.389a4.753,4.753,0,0,1-3.317,2.273,4.619,4.619,0,0,1-4.892-2.716m7.392,2.622c-.182.047-.254-.1-.235-.247a.283.283,0,0,1,.183-.2c.063-.008.142.1.23.177-.071.112-.109.249-.178.268m3.148-1.892a1.559,1.559,0,0,0-1.154.57A1.559,1.559,0,0,1,195.912,54.091Z" transform="translate(-103.915 -21.915)" fill="#b8347a"/>
        <path id="Path_48" data-name="Path 48" d="M246.149,38.88c-1.548-.006-3.1-.009-4.644,0-.237,0-.585-.093-.566.338.013.289.254.307.48.371,1.432.405,1.673.755,1.265,2.156-.347,1.19-.8,2.353-1.243,3.512-.9,2.341-1.83,4.671-2.873,7.326-1.519-4.078-3.226-7.72-4.458-11.553-.283-.88.186-1.255.97-1.421.3-.063.823.094.787-.4-.043-.579-.592-.313-.913-.317-1.888-.026-3.777-.042-5.663,0-.472.011-1.245-.356-1.383.27-.155.7.725.391,1.1.626a5.447,5.447,0,0,1,1.929,2.848c2.012,4.753,3.975,9.526,5.973,14.285.163.389.2,1.014.764,1s.513-.66.725-1.032a2.527,2.527,0,0,0,.122-.316c1.98-4.928,3.947-9.861,5.954-14.778.377-.923.719-1.95,1.906-2.206a.345.345,0,0,0,.282-.416c-.033-.32-.3-.287-.515-.287" transform="translate(-131.565 -22.397)" fill="#b8347a"/>
        <path id="Path_49" data-name="Path 49" d="M103.805,50.258c-.348-.2-.486.072-.625.276a13.236,13.236,0,0,1-1.87,2.266,5.79,5.79,0,0,1-8.607-.541,10.138,10.138,0,0,1-1.918-5.7c-.077-.863.207-1.118,1.051-1.107q4.418.058,8.837,0c.882-.011,2.2.444,2.553-.21.5-.906-.15-2.1-.53-3.124a4.4,4.4,0,0,0-.394-.675,2.355,2.355,0,0,0,.246,1.446,4.154,4.154,0,0,1,.153.477,4.154,4.154,0,0,0-.153-.477,2.358,2.358,0,0,1-.246-1.446.091.091,0,0,0-.057-.118,1.562,1.562,0,0,0-.665-.93v0l-.214-.247-.225-.217h.005a1.82,1.82,0,0,0-1.145-.9h0c-2.973-2.165-7.809-1.2-10.09,2.053a12.146,12.146,0,0,0-1.371,11.494,5.987,5.987,0,0,0,2.788,3.506,3.048,3.048,0,0,0,1.264.7c5.551,1.7,9.4-1.239,11.384-5.867.123-.285.119-.493-.175-.664m-6.1-10.039.2.206.226.25h-.008l.451.694-.005.009a.591.591,0,0,1,.463.085.545.545,0,0,1,.157.21.545.545,0,0,0-.157-.21.591.591,0,0,0-.463-.085c.8,2.7.8,2.7-2.032,2.7-1.876,0-3.752-.021-5.627-.032l-.007.007.007-.007c.2-3.855,3.819-5.914,6.8-3.826" transform="translate(-50.636 -21.865)" fill="#b8347a"/>
        <path id="Path_50" data-name="Path 50" d="M120.017,43.258l0,0,.014.013-.017-.017" transform="translate(-69.289 -24.974)" fill="#b8347a"/>
        <path id="Path_51" data-name="Path 51" d="M294.784,54.309c-.9.44-1.793,1.138-2.751.158L292,54.5l.033-.03a12.5,12.5,0,0,1-.223-2.693c.013-2.9.038-5.8-.021-8.7a4.721,4.721,0,0,0-3.656-4.833,8.862,8.862,0,0,0-5.972.42,4.82,4.82,0,0,0-3.06,3.11,1.887,1.887,0,0,0,.536,2.164,1.754,1.754,0,0,0,2.011.177,1.789,1.789,0,0,0,.878-2.027,3.292,3.292,0,0,1,.2-2.088c1.465-1.321,3.061-1.233,4.724-.438h0l.23.226c1.033,1.616.733,3.407.679,5.165l.063.058-.063-.058a39.9,39.9,0,0,0-6.571,2.947l.018.019-.018-.019a5.66,5.66,0,0,0-2.495,2.042.933.933,0,0,0-.453.679,4.311,4.311,0,0,0,.456,5.25l.066-.063a.556.556,0,0,1,.452.451c1.353.565,2.728,1.124,4.189.467a13.858,13.858,0,0,1,1.876-.662l.124.12c.92-.342,1.5-1.2,2.391-1.622.834,2.414,1.809,3.1,3.687,2.639,1.7-.419,2.891-1.661,2.7-2.885M288.02,38.769a.477.477,0,0,0-.325.007.477.477,0,0,1,.325-.007m-8.664,11.223.005.005-.005-.005m-.018-.017-.021-.02Zm-.43.7h0l-.05-.046ZM285,55.184c.077-.011.153-.022.229-.03-.075.008-.152.019-.229.03m-.19-.282a5.95,5.95,0,0,1-1.128-.032,1.16,1.16,0,0,0,1.2.331,1.159,1.159,0,0,1-1.2-.331l0,.009c-.374.088-.7.088-.73-.419l-.432-.432a4.618,4.618,0,0,1-.244-4.307l.044-.037-.014-.055.221-.334a.079.079,0,0,1,0,.01,10.3,10.3,0,0,1,5.866-3.211c.012,1.7-.1,3.4.065,5.085.282,2.817-1.694,3.413-3.648,3.723" transform="translate(-160.591 -21.887)" fill="#b8347a"/>
        <path id="Path_52" data-name="Path 52" d="M750.87,73.54s1.331,1.242,2.359.2-.2,3.312-.2,3.312a2.606,2.606,0,0,1-1.826-.072c-.755-.429-.334-3.4-.334-3.4" transform="translate(-433.428 -42.456)" fill="#ce1976"/>
        <path id="Path_53" data-name="Path 53" d="M720.3,74.355s-1.784.957-2.619-.077-.233,2.965-.233,2.965a3.486,3.486,0,0,0,2.93.073c1.736-.659-.078-2.962-.078-2.962" transform="translate(-414.079 -42.784)" fill="#ce1976"/>
        <path id="Path_54" data-name="Path 54" d="M651.721,74.071s-2.018.644-2.787-.44-.148,3.161-.148,3.161a3.181,3.181,0,0,0,2.571.27c1.477-.461.364-2.99.364-2.99" transform="translate(-374.424 -42.406)" fill="#ce1976"/>
        <path id="Path_55" data-name="Path 55" d="M542.059,73.335s-.419,1.1-2.1.92-.19,2.714-.19,2.714a2.939,2.939,0,0,0,2.833-.418c1.146-1.065-.548-3.216-.548-3.216" transform="translate(-311.274 -42.338)" fill="#ce1976"/>
      </g>
    </g>
  </svg>
  