<svg xmlns="http://www.w3.org/2000/svg" width="15.071" height="21.586" viewBox="0 0 15.071 21.586">
  <path id="empathize-line"
    d="M18.364,10.979a4,4,0,0,1,0,5.657l-5.657,5.657a1,1,0,0,1-1.414,0L5.636,16.636a4,4,0,1,1,5.657-5.657l.706.706.708-.706A4,4,0,0,1,18.364,10.979ZM7.051,12.393a2,2,0,0,0,0,2.828L12,20.172l4.95-4.95a2,2,0,1,0-2.83-2.827L12,14.513,9.879,12.393A2,2,0,0,0,7.051,12.393ZM12,1A4,4,0,1,1,8,5,4,4,0,0,1,12,1Zm0,2a2,2,0,1,0,2,2A2,2,0,0,0,12,3Z"
    transform="translate(-4.465 -1)" />
</svg>