<svg xmlns="http://www.w3.org/2000/svg" width="24" height="17.702" viewBox="0 0 24 17.702">
  <path id="surgical-mask-line"
    d="M12.485,3.121l7.757,1.939a1,1,0,0,1,.757.97V7h1a2.006,2.006,0,0,1,2,2v3a3,3,0,0,1-3,3h-.421a6,6,0,0,1-2.9,3.158l-4.789,2.394a2,2,0,0,1-1.789,0L6.317,18.158A6,6,0,0,1,3.421,15H3a3,3,0,0,1-3-3V9A2,2,0,0,1,2,7H3V6.031a1,1,0,0,1,.757-.97l7.757-1.939A2,2,0,0,1,12.485,3.121ZM12,5.062,5,6.812v5.98a4,4,0,0,0,2.211,3.578L12,18.764l4.789-2.394A4,4,0,0,0,19,12.792V6.812ZM3,9H2v3a1,1,0,0,0,1,1ZM22,9H21v4a1,1,0,0,0,1-1Z"
    transform="translate(0 -3.062)" />
</svg>