<svg xmlns="http://www.w3.org/2000/svg" width="19.799" height="19.799" viewBox="0 0 19.799 19.799">
  <path id="syringe-line"
    d="M21.678,7.979,20.264,9.393,18.142,7.272,16.021,9.393l3.536,3.536-1.414,1.414-.707-.707L11.071,20H5.414L3.293,22.121,1.879,20.707,4,18.586V12.929l6.364-6.364-.707-.707,1.414-1.414,3.536,3.536,2.121-2.121L14.607,3.736l1.414-1.414Zm-5.657,4.243L11.778,7.979,10.364,9.393l2.121,2.121-1.414,1.414L8.95,10.807,7.536,12.222l2.121,2.121L8.243,15.757,6.122,13.636,6,13.757V18h4.243Z"
    transform="translate(-1.879 -2.322)" />
</svg>